<?xml version="1.0" encoding="UTF-8" standalone="no"?>
<svg
   xmlns:dc="http://purl.org/dc/elements/1.1/"
   xmlns:cc="http://creativecommons.org/ns#"
   xmlns:rdf="http://www.w3.org/1999/02/22-rdf-syntax-ns#"
   xmlns:svg="http://www.w3.org/2000/svg"
   xmlns="http://www.w3.org/2000/svg"
   xmlns:sodipodi="http://sodipodi.sourceforge.net/DTD/sodipodi-0.dtd"
   xmlns:inkscape="http://www.inkscape.org/namespaces/inkscape"
   inkscape:version="1.0 (4035a4fb49, 2020-05-01)"
   height="149.62955"
   width="459.49585"
   sodipodi:docname="bigode.svg"
   xml:space="preserve"
   viewBox="0 0 459.49585 149.62955"
   y="0px"
   x="0px"
   id="Capa_1"
   version="1.1"><metadata
   id="metadata39"><rdf:RDF><cc:Work
       rdf:about=""><dc:format>image/svg+xml</dc:format><dc:type
         rdf:resource="http://purl.org/dc/dcmitype/StillImage" /></cc:Work></rdf:RDF></metadata><defs
   id="defs37" /><sodipodi:namedview
   inkscape:current-layer="Capa_1"
   inkscape:window-maximized="1"
   inkscape:window-y="-8"
   inkscape:window-x="-8"
   inkscape:cy="74.8151"
   inkscape:cx="229.74763"
   inkscape:zoom="1.1186169"
   showgrid="false"
   id="namedview35"
   inkscape:window-height="705"
   inkscape:window-width="1024"
   inkscape:pageshadow="2"
   inkscape:pageopacity="0"
   guidetolerance="10"
   gridtolerance="10"
   objecttolerance="10"
   borderopacity="1"
   bordercolor="#666666"
   pagecolor="#ffffff" />
<path
   id="path2"
   d="m 298.83763,143.2221 c -7.887,-2.212 -15.59,-5.034 -23.04,-8.44 -22.44,-10.44 -37.28,-24 -45.92,-38.720001 -8.64,14.600001 -23.48,28.280001 -45.92,38.720001 -7.446,3.447 -15.149,6.309 -23.04,8.56 -27.796,8.273 -57.383,8.384 -85.239997,0.32 -30.186,-9.008 -54.935,-30.747 -67.7600004,-59.520001 -2.986,-6.463 -5.461,-13.15 -7.39999999,-20 -1.71700001,-5.04 0.97699999,-10.517 6.01699999,-12.234 4.2780004,-1.457 8.9940004,0.253 11.3430004,4.114 13.8,16.92 25.28,22.68 35.44,21.76 10.16,-0.92 21.32,-9 32,-19.32 2.56,-2.44 6.56,-6.44 10.64,-10.52 7.999997,-8 16.799997,-16.76 25.959997,-24.48 29.64,-25.04 58.84,-28 80.8,-18.4 11.192,4.846 20.659,12.961 27.16,23.28 6.511,-10.326 15.993,-18.441 27.2,-23.28 21.96,-9.44 51.16,-6.64 80.8,18.4 9.16,7.72 17.8,16.36 25.96,24.48 4,4 8,8 10.68,10.52 10.8,10.32 21.44,18.4 32,19.32 10.56,0.92 21.64,-4.84 35.44,-21.76 3.053,-4.362 9.064,-5.423 13.425,-2.37 3.376,2.363 4.877,6.611 3.735,10.57 -1.939,6.85 -4.414,13.537 -7.4,20 -12.853,28.727001 -37.598,50.418001 -67.76,59.400001 -27.857,8.064 -57.444,7.953 -85.24,-0.32"
   style="fill:#3e425b" />
<g
   transform="translate(-3.6738731e-4,-154.9329)"
   id="g4">
</g>
<g
   transform="translate(-3.6738731e-4,-154.9329)"
   id="g6">
</g>
<g
   transform="translate(-3.6738731e-4,-154.9329)"
   id="g8">
</g>
<g
   transform="translate(-3.6738731e-4,-154.9329)"
   id="g10">
</g>
<g
   transform="translate(-3.6738731e-4,-154.9329)"
   id="g12">
</g>
<g
   transform="translate(-3.6738731e-4,-154.9329)"
   id="g14">
</g>
<g
   transform="translate(-3.6738731e-4,-154.9329)"
   id="g16">
</g>
<g
   transform="translate(-3.6738731e-4,-154.9329)"
   id="g18">
</g>
<g
   transform="translate(-3.6738731e-4,-154.9329)"
   id="g20">
</g>
<g
   transform="translate(-3.6738731e-4,-154.9329)"
   id="g22">
</g>
<g
   transform="translate(-3.6738731e-4,-154.9329)"
   id="g24">
</g>
<g
   transform="translate(-3.6738731e-4,-154.9329)"
   id="g26">
</g>
<g
   transform="translate(-3.6738731e-4,-154.9329)"
   id="g28">
</g>
<g
   transform="translate(-3.6738731e-4,-154.9329)"
   id="g30">
</g>
<g
   transform="translate(-3.6738731e-4,-154.9329)"
   id="g32">
</g>
</svg>
